<svg width="10" height="13" viewBox="0 0 10 13" fill="none" xmlns="http://www.w3.org/2000/svg">
<path d="M9.65909 7.57169C9.61648 7.63001 9.41761 7.87789 9.26136 8.03828L9.17614 8.12576C7.98295 9.45261 5.0142 11.4502 3.50852 12.0917C3.50852 12.1063 2.61364 12.4854 2.1875 12.5H2.13068C1.47727 12.5 0.866477 12.1209 0.553977 11.5085C0.383523 11.1731 0.227273 10.1962 0.213068 10.1817C0.0852273 9.3068 0 7.96683 0 6.49271C0 4.94714 0.0852273 3.54739 0.241477 2.68712C0.241477 2.67254 0.397727 1.88518 0.497159 1.62272C0.653409 1.24362 0.9375 0.922843 1.29261 0.718712C1.5767 0.572904 1.875 0.5 2.1875 0.5C2.5142 0.514581 3.125 0.734751 3.36648 0.835358C4.95739 1.47691 7.99716 3.57655 9.16193 4.85966C9.3608 5.06379 9.57386 5.31167 9.63068 5.36999C9.87216 5.69077 10 6.08445 10 6.50875C10 6.88639 9.88636 7.26549 9.65909 7.57169Z" fill="#7C8DB5" fill-opacity="0.72"/>
</svg>
