<svg version="1.1" id="Layer_1" xmlns="http://www.w3.org/2000/svg" xmlns:xlink="http://www.w3.org/1999/xlink" x="0px" y="0px"
	 width="100%" viewBox="0 0 1024 1024" enable-background="new 0 0 1024 1024" xml:space="preserve">
<path fill="#000000" opacity="1.000000" stroke="none" 
	d="
M408.845917,461.964417 
	C401.694397,440.937836 394.665253,420.287415 387.597046,399.650360 
	C387.006165,397.925079 386.312012,396.194183 385.379059,394.637817 
	C384.296478,392.831909 383.218933,390.259491 380.724152,390.752625 
	C378.041138,391.282928 376.730682,393.957123 376.501465,396.438599 
	C375.904510,402.900757 375.514343,409.398682 375.418396,415.887909 
	C374.371033,486.709290 374.066345,557.535645 374.346283,628.363464 
	C374.404175,643.011658 374.128876,657.648865 375.130707,672.315796 
	C376.590027,693.680359 390.382111,721.902710 422.863708,727.707458 
	C433.008759,729.520508 443.204102,731.213989 452.430511,736.385803 
	C455.302765,737.995850 457.031799,739.911987 457.500092,743.066345 
	C455.836975,744.645081 453.908417,744.140076 452.163666,744.137878 
	C424.672028,744.103455 397.243530,742.093811 369.779785,741.420044 
	C352.656250,741.000000 335.467041,741.772827 318.355438,742.806641 
	C304.039001,743.671631 289.740265,744.159058 275.410950,744.115234 
	C273.388519,744.109070 271.236328,744.032166 270.112183,742.013428 
	C268.951019,739.928223 270.304199,738.118591 271.381134,736.487976 
	C273.726135,732.937195 276.542969,730.196350 281.147675,729.422607 
	C285.387238,728.710205 289.559448,727.354675 293.628113,725.907837 
	C315.727203,718.049377 324.949829,700.452026 327.554749,678.854858 
	C330.453613,654.820862 328.690063,630.589539 328.652466,606.454102 
	C328.550140,540.795410 328.103912,475.136261 327.458496,409.480621 
	C327.352386,398.689850 327.637299,387.806702 326.051514,377.065338 
	C322.731445,354.576752 310.623688,338.533997 290.195099,328.677338 
	C286.744629,327.012512 283.441925,325.014191 279.916687,323.538422 
	C275.493958,321.686890 272.738800,318.405121 270.665070,314.385681 
	C271.386017,313.319550 272.290466,313.535858 272.937286,313.957397 
	C278.866974,317.821594 285.493256,317.735931 292.212189,317.732056 
	C328.044861,317.711395 363.877625,317.811371 399.710297,317.893890 
	C403.198303,317.901917 406.741272,318.254883 409.082733,314.229187 
	C410.826935,317.050415 413.040863,318.808136 410.127045,321.853729 
	C408.426971,323.630737 410.414581,325.937012 411.031128,327.882660 
	C421.740479,361.679962 432.568085,395.439789 443.283173,429.235321 
	C462.899475,491.105255 482.412781,553.008789 503.498627,614.399658 
	C505.766510,621.002563 508.365112,627.532654 511.363037,633.833496 
	C514.902222,641.271912 520.244507,641.624084 524.904724,634.728516 
	C530.833862,625.955261 534.127319,615.907959 537.563538,606.000488 
	C553.221436,560.854126 568.161865,515.467285 582.673645,469.941284 
	C584.238892,465.030914 585.446289,460.015717 584.376953,454.471649 
	C583.779663,451.375000 585.710144,447.725098 586.726562,444.393097 
	C596.639832,411.895020 608.402222,380.018250 619.251160,347.834290 
	C622.706177,337.584778 626.396362,327.414612 630.045166,317.019623 
	C638.284424,318.327606 646.552429,317.635345 654.800171,317.666931 
	C683.299377,317.776093 711.799744,317.831299 740.298523,317.692352 
	C748.599243,317.651855 757.181213,319.405487 765.563660,313.659882 
	C764.544189,319.482391 762.565918,323.152405 758.373108,325.145386 
	C753.866516,327.287506 749.210449,329.117126 744.607056,331.053314 
	C724.232178,339.623047 713.287292,355.681854 709.298279,376.720245 
	C706.992371,388.881165 708.638550,401.333496 708.258423,413.648834 
	C708.104736,418.629150 708.233032,423.618195 707.799988,428.645752 
	C706.198120,422.997955 705.461365,417.192871 703.119690,411.350555 
	C701.842590,412.779602 702.263184,414.290710 702.263123,415.594971 
	C702.259521,495.925659 702.202881,576.256531 702.403503,656.586792 
	C702.432617,668.257385 704.488342,679.788452 708.793091,690.760254 
	C716.900452,711.424072 732.474487,723.582458 753.314880,729.777954 
	C758.383911,731.284912 763.742188,732.391357 767.363220,736.834106 
	C768.496460,738.224548 770.217529,739.622253 769.238281,741.609192 
	C768.394958,743.320251 766.381165,743.131958 764.741638,743.080872 
	C750.927429,742.650330 737.099854,742.417114 723.308594,741.587646 
	C716.944946,741.204895 710.681885,741.659851 704.365051,741.853210 
	C693.377808,742.189575 682.401550,741.921448 671.409546,741.148865 
	C649.528076,739.610840 627.923950,744.267456 606.099854,744.633728 
	C599.442444,744.745361 592.780579,744.968201 586.119751,744.911499 
	C583.991516,744.893372 581.828125,744.592834 579.828430,743.234802 
	C579.983704,740.008606 582.132263,738.666809 584.543762,737.388000 
	C593.331665,732.727478 602.874817,730.347412 612.476257,728.276001 
	C639.109619,722.530151 649.963928,707.189941 654.613953,680.773132 
	C656.261719,671.411926 656.560852,661.893250 656.591064,652.411926 
	C656.689209,621.579468 656.993774,590.739746 656.471680,559.915466 
	C655.932617,528.087952 656.199036,496.254456 655.494202,464.436859 
	C655.051208,444.438629 654.844849,424.465271 655.678589,404.482758 
	C655.791138,401.784515 655.501709,399.156158 654.554260,396.624634 
	C654.026428,395.214325 653.469177,393.655579 651.718079,393.473175 
	C649.893188,393.283112 649.155701,394.813263 648.486572,396.140076 
	C646.521423,400.036743 644.814270,404.215942 644.567688,408.460449 
	C644.160767,415.464417 640.031189,420.872620 637.757385,427.041809 
	C626.928040,456.424530 617.627808,486.316742 607.667297,515.989197 
	C586.898621,577.858887 566.470886,639.845032 544.621887,701.348145 
	C541.111450,711.229675 537.944702,721.233887 534.665894,731.196716 
	C534.043335,733.088501 533.452209,735.025940 533.171570,736.988770 
	C532.129822,744.275208 532.160400,744.408630 524.650391,743.192200 
	C517.862305,742.092651 511.049164,742.061157 504.217590,742.114685 
	C501.714508,742.134216 499.860321,741.716187 499.055206,738.686829 
	C492.423004,713.732849 483.986725,689.342163 475.908020,664.834961 
	C460.010345,616.608459 444.415894,568.282104 428.556793,520.042847 
	C422.213318,500.747589 415.501953,481.573334 408.845917,461.964417 
z"/>
<path fill="#000000" opacity="1.000000" stroke="none" 
	d="
M520.645264,628.365112 
	C524.799561,624.337952 524.132141,618.055542 528.490784,614.508423 
	C526.726746,620.630493 525.049072,626.787964 520.425049,631.816528 
	C519.083130,630.231750 520.086182,629.494141 520.645264,628.365112 
z"/>
</svg>